HIERARCHY
ROOT Hips
{
	OFFSET 0.00000 0.00000 0.00000
	CHANNELS 6 Xposition Yposition Zposition Zrotation Yrotation Xrotation 
	JOINT LHipJoint
	{
		OFFSET 0 0 0
		CHANNELS 3 Zrotation Yrotation Xrotation
		JOINT LeftHip
		{
			OFFSET 1.62329 -1.80800 0.67318
			CHANNELS 3 Zrotation Yrotation Xrotation
			JOINT LeftKnee
			{
				OFFSET 2.57139 -7.06484 0.00000
				CHANNELS 3 Zrotation Yrotation Xrotation
				JOINT LeftAnkle
				{
					OFFSET 2.52017 -6.92413 0.00000
					CHANNELS 3 Zrotation Yrotation Xrotation
					JOINT LeftToe
					{
						OFFSET 0.23295 -0.64001 2.10214
						CHANNELS 3 Zrotation Yrotation Xrotation
						End Site
						{
							OFFSET 0.00000 -0.00000 1.10139
						}
					}
				}
			}
		}
	}
	JOINT RHipJoint
	{
		OFFSET 0 0 0
		CHANNELS 3 Zrotation Yrotation Xrotation
		JOINT RightHip
		{
			OFFSET -1.48061 -1.80800 0.67318
			CHANNELS 3 Zrotation Yrotation Xrotation
			JOINT RightKnee
			{
				OFFSET -2.63258 -7.23296 0.00000
				CHANNELS 3 Zrotation Yrotation Xrotation
				JOINT RightAnkle
				{
					OFFSET -2.54779 -7.00000 0.00000
					CHANNELS 3 Zrotation Yrotation Xrotation
					JOINT RightToe
					{
						OFFSET -0.23067 -0.63376 2.12161
						CHANNELS 3 Zrotation Yrotation Xrotation
						End Site
						{
							OFFSET -0.00000 -0.00000 1.11000
						}
					}
				}
			}
		}
	}
	JOINT lowerback
	{
		OFFSET 0 0 0
		CHANNELS 3 Zrotation Yrotation Xrotation
		JOINT Chest
		{
			OFFSET -0.02108 2.07573 -0.16981
			CHANNELS 3 Zrotation Yrotation Xrotation
			JOINT Chest2
			{
				OFFSET 0.05070 2.08439 -0.03141
				CHANNELS 3 Zrotation Yrotation Xrotation
				JOINT lowerneck
				{
					OFFSET 0 0 0
					CHANNELS 3 Zrotation Yrotation Xrotation
					JOINT Neck
					{
						OFFSET -0.10731 1.60408 0.31370
						CHANNELS 3 Zrotation Yrotation Xrotation
						JOINT Head
						{
							OFFSET 0.08411 1.65679 -0.30822
							CHANNELS 3 Zrotation Yrotation Xrotation
							End Site
							{
								OFFSET 0.03911 1.69149 -0.14146
							}
						}
					}
				}
				JOINT LeftCollar
				{
					OFFSET 0 0 0
					CHANNELS 3 Zrotation Yrotation Xrotation
					JOINT LeftShoulder
					{
						OFFSET 3.52315 0.73219 -0.54694
CHANNELS 3 Zrotation Xrotation Yrotation
						JOINT LeftElbow
						{
OFFSET 0 -5.324620 -0.000000
CHANNELS 3 Zrotation Xrotation Yrotation
							JOINT LeftWrist
							{
OFFSET 0 -3.484020 -0.000000
CHANNELS 3 Zrotation Xrotation Yrotation
								JOINT lhand
								{
									OFFSET 0 0 0
CHANNELS 3 Zrotation Xrotation Yrotation
									JOINT LFingers
									{
OFFSET 0 -0.572480 -0.000000
CHANNELS 3 Zrotation Xrotation Yrotation
										End Site
										{
OFFSET 0 -0.461540 -0.000000
										}
									}
								}
								JOINT LThumb
								{
OFFSET 0 0.000000 0.000000
CHANNELS 3 Zrotation Xrotation Yrotation
									End Site
									{
OFFSET 0 -0.468590 0.468590
									}
								}
							}
						}
					}
				}
				JOINT RightCollar
				{
					OFFSET 0 0 0
					CHANNELS 3 Zrotation Yrotation Xrotation
					JOINT RightShoulder
					{
						OFFSET -3.41766 0.93592 -0.10019
CHANNELS 3 Zrotation Xrotation Yrotation
						JOINT RightElbow
						{
OFFSET 0 -5.335890 -0.000000
CHANNELS 3 Zrotation Xrotation Yrotation
							JOINT RightWrist
							{
OFFSET 0 -3.641340 -0.000000
CHANNELS 3 Zrotation Xrotation Yrotation
								JOINT rhand
								{
									OFFSET 0 0 0
CHANNELS 3 Zrotation Xrotation Yrotation
									JOINT RFingers
									{
OFFSET 0 -0.734810 -0.000000
CHANNELS 3 Zrotation Xrotation Yrotation
										End Site
										{
OFFSET 0 -0.592420 -0.000000
										}
									}
								}
								JOINT RThumb
								{
OFFSET 0 0.000000 0.000000
CHANNELS 3 Zrotation Xrotation Yrotation
									End Site
									{
OFFSET 0 -0.601470 0.601470
									}
								}
							}
						}
					}
				}
			}
		}
	}
}
MOTION
Frames: 4
Frame Time: 0.008333333333333333
0.531000 17.908200 -0.697000 2.778800 -6.736400 2.180500 0.000000 0.000000 0.000000 -24.978200 0.211600 -4.930900 1.048000 6.510100 18.271800 0.155600 9.929500 -16.445400 0.668000 -5.226600 -14.556100 0.000000 0.000000 0.000000 12.623400 6.129500 -8.125300 -2.331300 -9.524500 27.450300 -1.272700 -3.793500 -22.981500 -0.007000 0.538800 -1.480500 -6.000500 -1.672600 -0.387800 1.616800 -2.241000 -1.516000 5.046700 -1.048000 -1.053400 -13.307500 -8.846400 -22.234900 7.588100 -10.093000 24.315400 3.274000 -4.754300 12.926500 0.000000 0.000000 0.000000 1.679500 1.063500 -15.914000 13.561300 -22.104000 2.660800 11.756400 11.342400 -26.437400 0.000000 0.000000 0.000000 -7.125000 0.000000 0.000000 -19.636000 55.806400 5.354500 0.000000 0.000000 0.000000 -5.417500 1.802900 9.984900 -15.791100 -25.236600 -3.556400 -37.388100 19.331300 3.430100 0.000000 0.000000 0.000000 7.125000 0.000000 -0.000000 -8.854500 34.190300 -2.372300
0.541773 17.903430 -0.683900 2.754991 -6.174432 1.900586 0.000000 0.000000 0.000000 -24.961146 0.036127 -4.569558 1.057143 6.537421 18.352017 0.177133 9.630710 -16.376067 0.654289 -5.173665 -14.404634 0.000000 0.000000 0.000000 12.689865 5.746527 -7.731237 -2.326618 -9.515613 27.422015 -1.295930 -4.128684 -23.348280 -0.019677 0.904612 -2.486363 -6.009554 -1.394999 -0.255916 1.529533 -1.870818 -1.138751 4.959471 -0.881333 -0.788684 -12.943368 -8.117403 -23.353756 7.354699 -8.888032 23.776453 3.333718 -4.186589 12.744430 0.000000 0.000000 0.000000 1.862918 0.172537 -17.045084 13.756332 -22.385331 2.734618 11.128194 10.437051 -27.770267 0.000000 0.000000 0.000000 -7.125000 0.000000 0.000000 -21.120105 56.925623 6.368099 0.000000 0.000000 0.000000 -5.609610 1.404689 8.471559 -16.700022 -26.460510 -3.952713 -38.654337 15.643255 3.698319 0.000000 0.000000 0.000000 7.125000 0.000000 0.000000 -9.924831 34.575358 -2.572923
0.558236 17.902999 -0.684040 2.876607 -5.301712 1.934778 0.000000 0.000000 0.000000 -25.034108 -0.008239 -4.664705 1.057019 6.537073 18.350993 0.240610 8.678595 -16.139609 0.628363 -5.072351 -14.115005 0.000000 0.000000 0.000000 12.552198 5.411892 -7.684509 -2.342390 -9.545550 27.517126 -1.347536 -4.328647 -23.868727 -0.010376 0.657189 -1.806097 -6.387717 -1.249256 -0.053577 1.522952 -1.693286 -1.236988 5.174435 -0.778549 -1.017545 -12.868512 -7.433355 -23.464674 6.865663 -7.718393 23.026291 3.347195 -3.715708 12.301058 0.000000 0.000000 0.000000 1.757580 0.313526 -16.500292 14.308759 -23.174390 2.948536 14.230053 12.093213 -23.043903 0.000000 0.000000 0.000000 -7.125000 0.000000 0.000000 -15.425780 52.994677 3.179088 0.000000 0.000000 0.000000 -6.019533 2.198982 9.968722 -19.316720 -29.809611 -5.187720 -44.457808 11.785034 2.979897 0.000000 0.000000 0.000000 7.125000 0.000000 0.000000 -14.575881 33.866810 -4.093206
0.590104 17.897755 -0.689477 3.018730 -4.507726 1.984510 0.000000 0.000000 0.000000 -25.220812 -0.068103 -4.763089 1.041382 6.490022 18.213035 0.262800 7.937171 -15.645868 0.667857 -5.226128 -14.554612 0.000000 0.000000 0.000000 12.338133 5.139832 -7.732588 -2.365531 -9.589172 27.656364 -1.389282 -4.519434 -24.299816 -0.010393 0.652377 -1.792890 -6.565366 -0.972211 -0.051258 1.323588 -1.322251 -1.079798 5.064687 -0.600047 -0.907968 -13.006332 -6.931519 -23.311931 6.955386 -6.877833 20.821752 3.532883 -3.311836 11.336989 0.000000 0.000000 0.000000 2.146895 0.175665 -17.126693 14.613607 -23.605024 3.069559 9.899294 9.461967 -28.993864 0.000000 0.000000 0.000000 -7.125000 0.000000 0.000000 -23.218155 57.793253 7.541013 0.000000 0.000000 0.000000 -6.812807 2.111685 13.415170 -24.866857 -36.065340 -8.212357 -47.137857 10.563184 2.117770 0.000000 0.000000 0.000000 7.125000 0.000000 0.000000 -16.546671 32.755180 -5.150370
